<svg width="64" height="62" viewBox="0 0 64 62" fill="none" xmlns="http://www.w3.org/2000/svg">
  <g clip-path="url(#clip0_2_19)">
    <path
      d="M58 4.84375H6C4.4087 4.84375 2.88258 5.45614 1.75736 6.54619C0.632141 7.63625 0 9.11468 0 10.6562L0 51.3438C0 52.8853 0.632141 54.3638 1.75736 55.4538C2.88258 56.5439 4.4087 57.1562 6 57.1562H58C59.5913 57.1562 61.1174 56.5439 62.2426 55.4538C63.3679 54.3638 64 52.8853 64 51.3438V10.6562C64 9.11468 63.3679 7.63625 62.2426 6.54619C61.1174 5.45614 59.5913 4.84375 58 4.84375ZM54 10.6562H58V14.5312H54V10.6562ZM48 10.6562H52V14.5312H48V10.6562ZM42 10.6562H46V14.5312H42V10.6562ZM60 51.3438C60 51.8576 59.7893 52.3504 59.4142 52.7138C59.0391 53.0771 58.5304 53.2812 58 53.2812H6C5.46957 53.2812 4.96086 53.0771 4.58579 52.7138C4.21071 52.3504 4 51.8576 4 51.3438V20.3438H60V51.3438Z"
      fill="#DE4839" />
    <path
      d="M22.74 24.6741L11.54 35.5241C11.1827 35.8935 10.9889 36.3838 11 36.89C10.9985 37.145 11.0489 37.3978 11.1485 37.6338C11.248 37.8699 11.3946 38.0846 11.58 38.2656L22.78 49.1059L25.61 46.3741L15.82 36.89L25.61 27.4156L22.74 24.6741ZM41.26 24.6741L38.43 27.4156L48.22 36.89L38.43 46.3741L41.26 49.1059L52.46 38.2656C52.8198 37.8937 53.0138 37.3995 53 36.89C53.0004 36.3784 52.7919 35.8873 52.42 35.5241L41.26 24.6741Z"
      fill="#DE4839" />
    <path d="M32.5374 24.8067L27.5364 49.0302L31.4587 49.7901L36.4597 25.5667L32.5374 24.8067Z" fill="#DE4839" />
  </g>
  <defs>
    <clipPath id="clip0_2_19">
      <rect width="64" height="62" fill="white" />
    </clipPath>
  </defs>
</svg>